<?xml version="1.0" standalone="no"?>
<!DOCTYPE svg PUBLIC "-//W3C//DTD SVG 20010904//EN"
 "http://www.w3.org/TR/2001/REC-SVG-20010904/DTD/svg10.dtd">
<svg version="1.0" xmlns="http://www.w3.org/2000/svg"
 width="372.000000pt" height="46.000000pt" viewBox="0 0 372.000000 46.000000"
 preserveAspectRatio="xMidYMid meet">

<g transform="translate(0.000000,46.000000) scale(0.100000,-0.100000)"
fill="#000000" stroke="none">
<path d="M204 408 c-14 -31 -19 -65 -19 -123 0 -76 3 -84 50 -175 l50 -95 74
-3 c41 -2 78 1 83 6 9 9 -200 431 -213 432 -3 0 -15 -19 -25 -42z"/>
<path d="M2125 373 c-37 -10 -64 -35 -75 -68 -23 -70 14 -118 111 -145 70 -19
91 -39 69 -65 -12 -14 -25 -16 -68 -11 -29 4 -69 13 -88 21 l-34 14 0 -44 c0
-41 2 -44 38 -56 50 -17 149 -17 190 0 62 26 81 107 37 159 -18 21 -43 35 -90
47 -70 19 -91 35 -81 61 5 13 17 15 69 11 34 -3 72 -8 85 -12 20 -7 22 -4 22
33 0 29 -5 42 -17 47 -25 9 -144 15 -168 8z"/>
<path d="M2480 369 c-48 -20 -70 -50 -70 -94 0 -71 27 -94 148 -125 35 -9 42
-15 42 -35 0 -40 -58 -43 -177 -9 -21 6 -23 3 -23 -30 0 -33 4 -39 35 -52 84
-35 184 -26 231 21 18 18 24 35 24 65 0 72 -25 96 -127 120 -62 14 -82 32 -62
56 11 13 26 15 74 11 33 -3 68 -8 78 -12 14 -6 17 -1 17 33 0 29 -5 42 -17 47
-32 12 -148 15 -173 4z"/>
<path d="M760 346 c-13 -35 -69 -191 -95 -269 l-24 -67 49 0 c45 0 49 2 55 28
6 27 7 28 81 28 74 0 75 -1 81 -28 5 -26 9 -28 55 -28 36 0 49 4 45 13 -2 6
-31 87 -63 179 l-59 168 -58 0 c-51 0 -58 -3 -67 -24z m95 -134 c10 -34 15
-66 11 -69 -7 -8 -75 -8 -82 0 -3 3 5 39 17 82 25 84 28 83 54 -13z"/>
<path d="M1010 335 l0 -35 50 0 50 0 0 -145 0 -145 40 0 39 0 3 143 3 142 53
3 52 3 0 35 0 34 -145 0 -145 0 0 -35z"/>
<path d="M1370 190 l0 -180 86 0 85 0 15 35 c7 19 14 37 14 40 0 3 -27 5 -60
5 l-60 0 0 140 0 140 -40 0 -40 0 0 -180z"/>
<path d="M1729 343 c-6 -15 -33 -89 -59 -163 -26 -74 -51 -143 -55 -152 -6
-16 -1 -18 43 -18 47 0 51 2 57 28 6 27 7 28 80 28 73 0 74 -1 80 -28 6 -26
10 -28 56 -28 44 0 50 2 44 18 -3 9 -31 89 -63 177 l-57 160 -58 3 c-54 3 -58
2 -68 -25z m96 -131 c10 -34 16 -65 12 -68 -7 -7 -76 -8 -84 -1 -3 3 5 40 18
82 24 83 26 82 54 -13z"/>
<path d="M2800 190 l0 -180 40 0 40 0 0 180 0 180 -40 0 -40 0 0 -180z"/>
<path d="M3075 358 c-3 -7 -27 -76 -54 -153 -27 -77 -54 -152 -60 -167 l-11
-28 50 0 c47 0 51 2 56 28 6 27 7 28 80 28 72 0 74 -1 83 -28 9 -25 15 -28 57
-28 32 0 45 4 42 13 -3 6 -31 87 -64 180 l-59 167 -58 0 c-37 0 -59 -4 -62
-12z m90 -141 c10 -37 15 -70 11 -74 -7 -8 -75 -8 -82 0 -3 2 5 39 18 81 12
42 25 73 29 68 3 -4 14 -37 24 -75z"/>
<path d="M3390 190 l0 -180 40 0 40 0 0 135 0 135 49 -92 c102 -192 90 -178
144 -178 l47 0 0 180 0 180 -35 0 -34 0 -3 -112 -3 -113 -60 113 -59 112 -63
0 -63 0 0 -180z"/>
<path d="M65 140 c-31 -61 -53 -115 -50 -120 4 -6 42 -10 85 -10 l79 0 11 41
c8 31 8 54 0 89 -12 52 -44 110 -60 110 -5 0 -35 -50 -65 -110z"/>
</g>
</svg>
