<?xml version="1.0" standalone="no"?>
<!DOCTYPE svg PUBLIC "-//W3C//DTD SVG 20010904//EN"
 "http://www.w3.org/TR/2001/REC-SVG-20010904/DTD/svg10.dtd">
<svg version="1.0" xmlns="http://www.w3.org/2000/svg"
 width="544.000000pt" height="216.000000pt" viewBox="0 0 544.000000 216.000000"
 preserveAspectRatio="xMidYMid meet">

<g transform="translate(0.000000,216.000000) scale(0.100000,-0.100000)"
fill="#000000" stroke="none">
<path d="M508 1326 c-52 -19 -82 -40 -112 -79 -97 -127 -59 -308 78 -379 84
-43 195 -32 273 28 l35 26 -28 29 c-24 25 -30 27 -43 15 -32 -27 -81 -46 -121
-46 -151 0 -216 196 -101 305 29 27 39 30 99 30 54 0 73 -4 100 -24 l33 -23
25 23 c32 30 30 40 -10 66 -66 42 -157 54 -228 29z"/>
<path d="M1503 1103 c-57 -132 -103 -242 -103 -246 0 -5 18 -7 41 -5 39 3 42
5 64 58 l23 55 115 3 114 3 26 -61 c26 -59 27 -60 67 -60 22 0 40 3 40 8 0 4
-47 113 -103 242 l-104 235 -39 3 -39 3 -102 -238z m217 -55 c0 -4 -36 -8 -80
-8 -44 0 -80 2 -80 4 0 2 11 29 25 59 13 31 32 73 40 94 l16 38 39 -90 c22
-49 40 -93 40 -97z"/>
<path d="M2135 1329 c-66 -25 -100 -79 -92 -146 8 -70 48 -101 173 -133 50
-12 94 -45 94 -70 0 -10 -12 -28 -27 -40 -38 -30 -116 -24 -173 14 l-40 27
-24 -28 c-13 -15 -22 -31 -20 -35 3 -4 26 -20 51 -35 58 -34 182 -45 229 -20
70 36 101 112 74 177 -17 42 -52 64 -140 90 -94 28 -120 44 -120 74 0 59 87
78 169 36 l42 -21 19 23 c29 34 25 44 -27 68 -55 26 -145 35 -188 19z"/>
<path d="M2663 1321 c-67 -31 -96 -96 -73 -165 15 -47 48 -69 153 -101 92 -28
114 -47 103 -89 -13 -52 -98 -60 -179 -17 l-55 29 -22 -23 c-13 -13 -20 -30
-17 -38 11 -28 99 -61 173 -65 120 -7 184 42 184 142 0 78 -39 109 -193 151
-66 18 -88 46 -67 84 24 46 85 49 164 9 l39 -20 18 23 c27 35 24 45 -26 69
-65 31 -149 36 -202 11z"/>
<path d="M3782 1323 c-20 -40 -202 -459 -202 -466 0 -5 18 -7 41 -5 39 3 42 5
64 58 l23 55 117 0 117 0 23 -55 c23 -54 24 -55 69 -58 l45 -3 -80 183 c-44
101 -92 211 -107 246 -25 61 -26 62 -63 62 -26 0 -41 -5 -47 -17z m109 -240
l18 -43 -84 0 -84 0 35 83 c20 45 39 89 42 97 6 14 14 -2 73 -137z"/>
<path d="M4304 1330 c-18 -6 -46 -26 -63 -45 -26 -30 -31 -44 -31 -86 0 -71
38 -109 140 -139 41 -12 85 -28 98 -36 30 -19 30 -67 0 -88 -42 -30 -142 -13
-191 32 -18 16 -20 15 -43 -13 -28 -36 -21 -48 51 -81 63 -30 163 -33 214 -6
68 34 96 107 68 174 -18 43 -61 68 -158 93 -71 19 -99 38 -99 69 0 29 11 43
43 55 33 13 95 1 134 -24 26 -17 27 -17 50 9 28 33 25 40 -29 67 -47 24 -138
33 -184 19z"/>
<path d="M4825 1329 c-53 -15 -88 -61 -93 -124 -4 -51 -3 -56 29 -88 26 -26
57 -41 122 -61 64 -20 91 -33 103 -51 15 -23 15 -27 0 -50 -30 -46 -118 -46
-188 0 l-41 27 -22 -28 c-28 -35 -21 -47 50 -80 67 -32 175 -33 223 -4 64 40
89 118 57 180 -19 36 -37 47 -150 85 -77 26 -91 34 -100 59 -8 25 -6 31 18 52
36 31 68 30 136 -1 57 -27 56 -27 82 17 7 14 4 21 -16 34 -61 40 -143 53 -210
33z"/>
<path d="M950 1090 l0 -240 165 0 165 0 0 40 0 40 -120 0 -120 0 0 200 0 200
-45 0 -45 0 0 -240z"/>
<path d="M3130 1091 l0 -241 40 0 40 0 0 74 0 73 80 7 c91 7 125 18 158 49 56
51 68 131 31 197 -36 64 -66 74 -216 78 l-133 4 0 -241z m223 158 c74 -20 85
-119 16 -154 -15 -8 -55 -15 -89 -15 l-60 0 0 90 0 90 48 0 c26 0 64 -5 85
-11z"/>
</g>
</svg>
