<?xml version="1.0" standalone="no"?>
<!DOCTYPE svg PUBLIC "-//W3C//DTD SVG 20010904//EN"
 "http://www.w3.org/TR/2001/REC-SVG-20010904/DTD/svg10.dtd">
<svg version="1.0" xmlns="http://www.w3.org/2000/svg"
 width="208.000000pt" height="58.000000pt" viewBox="0 0 208.000000 58.000000"
 preserveAspectRatio="xMidYMid meet">

<g transform="translate(0.000000,58.000000) scale(0.100000,-0.100000)"
fill="#000000" stroke="none">
<path d="M383 568 c-22 -11 -38 -36 -28 -46 3 -3 13 2 23 11 22 20 43 22 60 5
20 -20 14 -34 -38 -97 -27 -33 -50 -63 -50 -66 0 -3 27 -5 60 -5 33 0 60 4 60
10 0 6 -16 10 -35 10 -19 0 -35 3 -35 8 0 4 16 27 35 51 45 56 47 94 5 116
-16 8 -30 15 -32 14 -2 0 -13 -5 -25 -11z"/>
<path d="M684 300 c0 -157 2 -221 3 -142 2 78 2 206 0 285 -1 78 -3 14 -3
-143z"/>
<path d="M199 554 c-27 -8 -68 -33 -97 -59 -128 -115 -128 -295 0 -410 166
-150 426 -60 467 160 16 84 14 85 -110 85 l-109 0 0 -50 0 -50 60 0 61 0 -16
-29 c-20 -40 -70 -77 -122 -90 -82 -22 -178 24 -214 103 -49 107 10 224 129
255 41 12 42 12 42 56 0 40 -2 45 -22 44 -13 0 -44 -7 -69 -15z"/>
<path d="M843 450 c-12 -5 -27 -19 -34 -32 -14 -25 -18 -176 -6 -219 8 -31 44
-49 96 -49 48 0 79 24 87 68 6 30 5 32 -23 32 -23 0 -31 -6 -40 -31 -9 -24
-17 -30 -35 -27 -19 2 -24 12 -31 53 -11 63 0 150 19 166 20 16 48 0 52 -30 3
-16 10 -21 33 -21 31 0 36 11 20 53 -15 38 -87 58 -138 37z"/>
<path d="M1314 446 c-17 -7 -34 -21 -38 -31 -3 -9 -6 -61 -6 -116 0 -93 2
-102 25 -124 34 -35 102 -35 142 -1 27 24 28 27 28 130 0 94 -2 108 -21 126
-27 27 -89 35 -130 16z m76 -36 c19 -12 27 -152 11 -192 -11 -30 -38 -37 -59
-16 -16 16 -16 190 0 206 14 14 28 15 48 2z"/>
<path d="M1030 300 l0 -150 30 0 30 0 0 66 0 65 33 -3 c32 -3 32 -4 37 -63 5
-57 7 -60 33 -63 27 -3 27 -3 27 57 0 52 -3 62 -26 80 -15 12 -22 21 -16 21
38 0 56 76 26 118 -13 20 -24 22 -95 22 l-79 0 0 -150z m126 83 c9 -34 -6 -57
-40 -61 -25 -3 -26 -1 -26 42 0 44 1 46 30 46 24 0 31 -5 36 -27z"/>
<path d="M1505 412 c3 -21 16 -87 28 -148 l22 -109 31 -3 c37 -4 36 -6 59 118
24 130 27 135 37 60 4 -36 14 -90 21 -120 12 -51 14 -55 44 -58 27 -3 33 1 38
20 7 29 55 269 55 274 0 2 -11 4 -25 4 -27 0 -27 -1 -50 -155 -13 -84 -20 -84
-29 0 -2 28 -10 74 -16 103 -11 50 -13 52 -45 52 -23 0 -35 -5 -39 -17 -10
-36 -36 -173 -36 -193 0 -12 -4 -18 -10 -15 -5 3 -10 24 -10 46 0 22 -5 71
-11 110 -12 67 -13 69 -41 69 -29 0 -30 -1 -23 -38z"/>
<path d="M1880 300 l0 -150 55 0 c85 0 121 19 136 72 19 72 -1 197 -35 220 -6
4 -44 8 -83 8 l-73 0 0 -150z m119 96 c8 -9 11 -46 9 -103 l-3 -88 -32 -3 -33
-3 0 105 c0 105 0 106 24 106 13 0 29 -6 35 -14z"/>
</g>
</svg>
