<?xml version="1.0" standalone="no"?>
<!DOCTYPE svg PUBLIC "-//W3C//DTD SVG 20010904//EN"
 "http://www.w3.org/TR/2001/REC-SVG-20010904/DTD/svg10.dtd">
<svg version="1.0" xmlns="http://www.w3.org/2000/svg"
 width="340.000000pt" height="40.000000pt" viewBox="0 0 340.000000 40.000000"
 preserveAspectRatio="xMidYMid meet">

<g transform="translate(0.000000,40.000000) scale(0.100000,-0.100000)"
fill="#000000" stroke="none">
<path d="M0 372 c0 -4 28 -36 63 -70 l63 -62 190 0 c178 0 192 -1 209 -20 15
-17 16 -24 7 -45 -12 -25 -12 -25 -146 -25 -91 0 -137 -4 -142 -11 -4 -7 20
-38 60 -77 l67 -65 87 5 c50 3 100 12 117 21 111 57 140 210 56 300 -51 56
-57 57 -356 57 -151 0 -275 -4 -275 -8z"/>
<path d="M900 195 l0 -135 68 0 c107 0 164 47 164 134 0 88 -61 136 -172 136
l-60 0 0 -135z m154 59 c56 -57 18 -144 -64 -144 l-40 0 0 85 0 85 39 0 c28 0
45 -7 65 -26z"/>
<path d="M1271 312 c-47 -25 -73 -76 -68 -129 6 -58 30 -91 84 -115 169 -75
295 163 131 248 -38 19 -107 17 -147 -4z m114 -36 c63 -26 75 -97 26 -147 -39
-38 -80 -39 -123 0 -52 47 -39 125 27 152 28 11 31 11 70 -5z"/>
<path d="M1622 309 c-76 -49 -84 -160 -16 -221 33 -28 95 -41 140 -29 116 31
142 190 41 251 -44 27 -122 26 -165 -1z m123 -34 c109 -52 36 -211 -76 -165
-31 13 -59 55 -59 88 0 35 54 88 93 91 5 1 24 -6 42 -14z"/>
<path d="M1940 196 l0 -136 24 0 c23 0 25 5 28 48 3 40 6 47 25 50 18 3 30 -7
54 -47 24 -38 38 -51 55 -51 30 0 30 5 0 56 l-23 41 24 27 c30 35 29 77 -1
113 -22 25 -31 28 -105 31 l-81 4 0 -136z m150 65 c20 -39 -14 -67 -71 -59
-20 2 -25 10 -27 41 l-3 37 45 0 c34 0 48 -5 56 -19z"/>
<path d="M2250 195 l0 -135 73 0 c116 0 175 53 164 147 -9 80 -71 123 -177
123 l-60 0 0 -135z m153 65 c33 -26 43 -70 23 -108 -17 -34 -34 -42 -82 -42
l-34 0 0 85 0 85 34 0 c18 0 45 -9 59 -20z"/>
<path d="M2595 204 c-27 -70 -51 -131 -53 -135 -2 -5 10 -9 26 -9 24 0 32 6
41 30 9 29 13 30 66 30 54 0 57 -2 68 -30 9 -24 17 -30 40 -30 16 0 27 4 25 8
-1 5 -25 66 -52 135 -49 124 -50 127 -80 127 -30 0 -32 -3 -81 -126z m94 34
c25 -68 25 -68 -14 -68 -31 0 -36 3 -30 18 4 9 12 29 17 45 12 33 16 34 27 5z"/>
<path d="M2895 305 c-48 -47 -29 -94 50 -124 58 -22 75 -42 56 -65 -16 -19
-50 -21 -86 -4 -21 10 -29 9 -42 -5 -15 -15 -13 -18 28 -36 51 -24 65 -25 109
-10 22 8 37 22 46 46 22 51 3 82 -66 108 -41 15 -56 27 -58 43 -4 26 35 39 68
22 16 -9 25 -9 36 1 20 16 18 24 -11 37 -45 21 -103 15 -130 -13z"/>
<path d="M3150 195 l0 -135 25 0 c24 0 25 3 25 55 l0 55 65 0 65 0 0 -55 c0
-52 1 -55 25 -55 l25 0 0 135 0 135 -25 0 c-24 0 -25 -3 -25 -55 l0 -55 -65 0
-65 0 0 55 c0 52 -1 55 -25 55 l-25 0 0 -135z"/>
</g>
</svg>
