<?xml version="1.0" standalone="no"?>
<!DOCTYPE svg PUBLIC "-//W3C//DTD SVG 20010904//EN"
 "http://www.w3.org/TR/2001/REC-SVG-20010904/DTD/svg10.dtd">
<svg version="1.0" xmlns="http://www.w3.org/2000/svg"
 width="372.000000pt" height="126.000000pt" viewBox="0 0 372.000000 126.000000"
 preserveAspectRatio="xMidYMid meet">

<g transform="translate(0.000000,126.000000) scale(0.100000,-0.100000)"
fill="#000000" stroke="none">
<path d="M470 1028 l-35 -11 27 -7 c49 -14 88 -44 106 -81 9 -20 25 -42 35
-49 11 -6 60 -12 112 -12 97 -1 125 8 125 41 1 10 6 6 16 -11 9 -18 23 -28 37
-28 43 0 51 -16 15 -31 -18 -7 -39 -21 -46 -30 -11 -17 -14 -16 -36 6 -32 32
-86 41 -155 24 -31 -8 -82 -14 -113 -14 -32 1 -58 -3 -58 -7 0 -4 19 -8 43 -8
l42 0 -30 -24 c-16 -14 -41 -30 -55 -37 -14 -6 -33 -15 -42 -20 -28 -14 -31
-11 -23 29 6 35 6 36 -9 17 -8 -11 -16 -39 -16 -62 0 -24 -4 -43 -10 -43 -5 0
-10 18 -10 40 0 22 -4 40 -10 40 -5 0 -10 -5 -10 -11 0 -20 -96 13 -120 41 -3
4 -14 10 -25 15 -16 7 -10 10 30 14 69 8 46 17 -49 19 -85 2 -96 6 -96 28 0
10 12 14 45 14 39 0 45 3 45 21 0 11 5 29 10 39 11 20 -3 39 -15 20 -4 -6 -10
-8 -15 -5 -4 3 -31 -17 -60 -45 -45 -44 -52 -55 -53 -93 -1 -24 5 -57 13 -73
20 -38 77 -95 115 -114 17 -8 32 -17 35 -20 7 -8 84 -30 160 -46 74 -16 259
-19 304 -5 17 5 60 18 96 27 157 43 266 152 243 243 -20 81 -122 161 -253 198
-62 18 -266 25 -310 11z m237 -233 c5 -8 26 -18 48 -22 l39 -9 -42 -13 c-29
-10 -42 -20 -42 -33 0 -24 -17 -23 -30 2 -6 12 -21 20 -35 20 -13 0 -36 5 -50
12 -33 15 -15 28 38 28 24 0 40 5 43 15 8 19 21 19 31 0z m237 -16 l38 -11
-23 -15 c-13 -9 -29 -22 -34 -29 -9 -10 -18 -6 -43 15 -31 28 -31 28 -9 39 28
14 26 14 71 1z m-394 -84 c0 -22 5 -25 33 -25 17 0 39 -4 46 -9 12 -8 8 -11
-15 -16 -58 -13 -64 -17 -64 -36 0 -24 -16 -25 -29 0 -6 10 -31 25 -55 32 -52
15 -51 29 3 29 31 0 40 5 49 25 6 14 16 25 22 25 5 0 10 -11 10 -25z m230 -10
c0 -10 10 -15 34 -15 19 0 38 -4 41 -10 3 -5 -1 -10 -9 -10 -25 0 -65 -22 -68
-37 -2 -12 -8 -10 -27 6 -14 12 -35 24 -48 27 -31 8 -19 24 18 24 19 0 29 5
29 15 0 8 7 15 15 15 8 0 15 -7 15 -15z"/>
<path d="M1255 916 c-26 -21 -30 -30 -30 -75 0 -32 6 -56 15 -65 20 -21 105
-36 196 -36 l74 0 0 -30 0 -30 -94 0 c-71 0 -98 4 -110 15 -16 17 -72 20 -81
5 -14 -22 8 -61 42 -75 42 -18 224 -21 270 -5 34 12 53 45 53 91 0 76 -44 99
-187 99 l-103 0 0 30 0 30 100 0 c60 0 100 -4 100 -10 0 -5 20 -10 45 -10 40
0 45 2 45 23 -1 52 -41 67 -188 67 -108 0 -119 -2 -147 -24z"/>
<path d="M1642 793 l3 -148 35 -17 c26 -13 62 -17 136 -18 176 0 194 18 194
201 0 117 0 119 -24 125 -58 14 -61 9 -66 -121 l-5 -120 -88 -3 c-57 -2 -94 1
-103 9 -11 9 -14 40 -14 125 l0 114 -35 0 -36 0 3 -147z"/>
<path d="M2063 933 c-18 -7 -18 -294 -1 -311 16 -16 260 -16 305 0 21 8 33 19
33 30 0 10 5 18 10 18 15 0 12 68 -5 93 -13 20 -13 26 0 51 8 16 15 34 15 42
0 26 -23 62 -47 73 -24 11 -285 15 -310 4z m267 -93 l0 -30 -100 0 -100 0 0
30 0 30 100 0 100 0 0 -30z m-5 -93 c13 -10 16 -21 11 -40 -6 -27 -7 -27 -106
-27 l-100 0 0 33 c0 19 3 37 7 40 12 13 168 8 188 -6z"/>
<path d="M2583 923 c-4 -10 -9 -20 -12 -23 -3 -3 -31 -54 -61 -115 -30 -60
-57 -112 -60 -115 -3 -3 -11 -15 -18 -28 -13 -23 -12 -23 35 -20 39 2 50 7 58
26 9 21 16 22 108 22 84 0 99 -2 104 -17 9 -26 23 -33 66 -33 35 0 38 2 31 23
-4 12 -9 24 -13 27 -3 3 -23 39 -44 80 -104 202 -95 190 -144 190 -32 0 -45
-4 -50 -17z m86 -136 c12 -21 21 -40 21 -42 0 -3 -25 -5 -55 -5 -30 0 -55 4
-55 8 0 15 25 62 33 62 4 0 7 10 7 22 0 19 2 20 14 8 8 -8 24 -32 35 -53z"/>
<path d="M2880 780 l0 -160 35 0 35 0 0 48 c0 26 5 53 12 60 7 7 42 12 88 12
94 0 120 -18 120 -80 0 -39 1 -40 35 -40 l35 0 0 50 c0 28 -7 61 -15 74 -13
20 -13 25 0 42 30 40 11 123 -33 144 -13 5 -88 10 -167 10 l-145 0 0 -160z
m275 70 c11 -35 -3 -40 -106 -40 -97 0 -99 0 -99 23 0 13 3 27 7 30 3 4 48 7
99 7 84 0 93 -2 99 -20z"/>
<path d="M3287 933 c-11 -11 -8 -253 4 -275 18 -33 70 -48 172 -48 93 0 150
12 175 36 8 9 12 54 12 153 l0 141 -35 0 -35 0 0 -106 c0 -143 -1 -144 -105
-144 -46 0 -90 3 -99 6 -13 5 -16 26 -16 125 l0 119 -33 0 c-19 0 -37 -3 -40
-7z"/>
</g>
</svg>
