<?xml version="1.0" standalone="no"?>
<!DOCTYPE svg PUBLIC "-//W3C//DTD SVG 20010904//EN"
 "http://www.w3.org/TR/2001/REC-SVG-20010904/DTD/svg10.dtd">
<svg version="1.0" xmlns="http://www.w3.org/2000/svg"
 width="286.000000pt" height="62.000000pt" viewBox="0 0 286.000000 62.000000"
 preserveAspectRatio="xMidYMid meet">

<g transform="translate(0.000000,62.000000) scale(0.100000,-0.100000)"
fill="#000000" stroke="none">
<path d="M70 490 c-11 -11 -20 -25 -20 -30 0 -21 151 -336 167 -348 9 -6 31
-12 49 -12 41 0 52 15 128 183 45 96 63 127 77 127 18 0 19 -10 19 -136 0 -74
5 -144 10 -155 15 -26 75 -26 90 0 5 11 10 73 10 139 0 106 2 121 20 137 25
22 65 22 90 0 18 -16 20 -31 20 -137 0 -139 7 -158 55 -158 48 0 55 19 55 153
0 139 12 163 82 158 40 -3 48 -27 48 -149 0 -133 11 -162 59 -162 47 0 51 13
51 169 0 166 -11 200 -75 227 -49 20 -85 18 -140 -10 l-48 -25 -27 21 c-44 32
-106 34 -164 4 l-49 -25 -30 21 c-45 32 -105 35 -147 6 -28 -19 -45 -46 -85
-136 -27 -62 -52 -112 -55 -112 -3 0 -28 51 -54 114 -27 63 -55 124 -63 135
-18 26 -47 27 -73 1z"/>
<path d="M1127 494 c-13 -14 -6 -40 57 -214 57 -156 66 -175 87 -175 20 0 28
16 73 147 29 81 54 150 58 153 3 3 29 -62 58 -145 30 -84 60 -154 67 -157 25
-10 40 18 103 195 60 168 67 207 34 200 -11 -2 -33 -50 -68 -150 -28 -80 -54
-149 -57 -152 -3 -4 -28 55 -54 131 -55 161 -61 173 -81 173 -17 0 -38 -45
-88 -198 -21 -62 -41 -110 -45 -107 -3 4 -29 72 -57 153 -48 136 -66 167 -87
146z"/>
<path d="M1783 488 c-22 -7 -33 -17 -33 -29 0 -22 14 -23 76 -8 81 21 158 -20
166 -86 l3 -30 -90 4 c-108 4 -155 -12 -185 -61 -35 -58 -21 -115 39 -155 56
-38 171 -27 210 20 18 23 34 21 28 -2 -6 -26 7 -45 27 -38 23 9 24 283 0 328
-30 58 -149 86 -241 57z m198 -199 c18 -9 20 -17 14 -47 -3 -21 -19 -50 -35
-66 -24 -25 -39 -30 -89 -34 -56 -4 -62 -2 -91 26 -16 17 -30 39 -30 49 0 28
29 63 64 79 34 16 132 12 167 -7z"/>
<path d="M2126 484 c-3 -9 -6 -93 -6 -189 0 -141 3 -175 15 -185 12 -10 18
-10 30 0 11 10 15 36 15 112 0 140 27 191 115 221 42 15 58 43 31 53 -28 11
-69 -6 -108 -45 -37 -37 -52 -43 -41 -15 3 8 2 25 -1 39 -7 28 -40 34 -50 9z"/>
<path d="M2455 485 c-72 -39 -104 -98 -105 -188 0 -71 25 -125 77 -164 33 -25
45 -28 113 -28 68 0 80 3 113 28 38 29 49 57 22 57 -9 0 -29 -9 -44 -21 -80
-59 -208 -15 -227 79 l-6 31 153 3 154 3 -2 42 c-4 98 -67 164 -161 170 -39 3
-66 -1 -87 -12z m152 -56 c29 -28 38 -43 47 -81 l6 -28 -130 0 c-145 0 -148 2
-112 68 39 73 132 93 189 41z"/>
</g>
</svg>
