<?xml version="1.0" standalone="no"?>
<!DOCTYPE svg PUBLIC "-//W3C//DTD SVG 20010904//EN"
 "http://www.w3.org/TR/2001/REC-SVG-20010904/DTD/svg10.dtd">
<svg version="1.0" xmlns="http://www.w3.org/2000/svg"
 width="286.000000pt" height="46.000000pt" viewBox="0 0 286.000000 46.000000"
 preserveAspectRatio="xMidYMid meet">

<g transform="translate(0.000000,46.000000) scale(0.100000,-0.100000)"
fill="#000000" stroke="none">
<path d="M1614 440 c-41 -13 -67 -54 -67 -106 0 -49 27 -82 111 -134 54 -33
69 -61 57 -100 -13 -42 -89 -44 -136 -4 -24 21 -29 17 -29 -21 0 -39 13 -49
77 -60 96 -15 152 27 153 114 0 50 -3 57 -40 93 -23 21 -47 38 -55 38 -8 0
-15 4 -15 8 0 5 -10 13 -23 19 -12 6 -29 23 -37 38 -14 26 -13 28 14 52 31 26
53 26 110 -3 16 -8 31 -14 33 -14 9 0 1 59 -10 68 -18 16 -107 23 -143 12z"/>
<path d="M650 430 c0 -6 4 -18 9 -28 8 -15 23 -50 50 -117 5 -11 16 -40 26
-65 10 -25 21 -54 25 -65 4 -11 15 -36 24 -57 9 -20 16 -43 16 -51 0 -19 26
-29 38 -14 13 18 42 83 42 96 0 6 4 19 9 29 5 9 17 37 26 62 10 25 26 65 37
89 19 43 20 44 31 20 7 -13 25 -58 41 -99 63 -165 85 -212 97 -208 6 2 24 37
41 78 16 41 33 84 38 95 5 11 22 56 39 100 18 44 36 88 41 97 18 32 12 48 -18
48 -21 0 -30 -7 -41 -32 -7 -18 -19 -47 -27 -65 -8 -17 -14 -37 -14 -45 0 -8
-4 -18 -8 -23 -5 -6 -17 -31 -26 -57 -10 -27 -21 -48 -24 -48 -7 0 -42 74 -42
88 0 5 -11 31 -25 58 -14 27 -25 54 -25 60 0 5 -6 22 -12 37 -11 22 -20 27
-50 27 -27 0 -38 -4 -38 -15 0 -8 -7 -31 -16 -52 -23 -51 -30 -68 -56 -136
-13 -33 -28 -59 -33 -59 -6 0 -20 26 -33 59 -26 68 -33 85 -56 136 -9 21 -16
44 -16 52 0 10 -11 15 -35 15 -19 0 -35 -5 -35 -10z"/>
<path d="M1380 230 l0 -210 30 0 30 0 0 210 0 210 -30 0 -30 0 0 -210z"/>
<path d="M1850 415 c0 -24 2 -25 70 -25 l70 0 0 -185 0 -185 35 0 35 0 0 185
0 184 73 3 c66 3 72 5 75 26 l3 22 -180 0 -181 0 0 -25z"/>
<path d="M2290 230 l0 -210 30 0 30 0 0 210 0 210 -30 0 -30 0 0 -210z"/>
<path d="M2604 423 c-4 -10 -15 -38 -26 -62 -10 -24 -28 -67 -39 -95 -25 -64
-47 -116 -59 -138 -6 -10 -10 -24 -10 -32 0 -8 -4 -16 -8 -18 -5 -1 -12 -15
-16 -30 -6 -26 -4 -28 24 -28 26 0 33 6 46 38 35 88 28 83 128 80 99 -3 93 0
125 -81 13 -32 19 -37 48 -37 l33 0 -16 38 c-9 20 -19 46 -24 57 -4 11 -23 54
-42 95 -19 41 -43 97 -53 123 -10 26 -22 50 -26 53 -5 3 -9 13 -9 24 0 32 -66
43 -76 13z m69 -151 c15 -32 27 -61 27 -65 0 -4 -27 -7 -60 -7 -64 0 -65 1
-51 28 5 9 17 36 26 60 10 23 21 42 24 42 3 0 18 -26 34 -58z"/>
<path d="M526 239 c-30 -29 -94 -59 -126 -59 -16 0 -32 -4 -35 -10 -3 -6 -53
-10 -113 -10 l-107 0 -35 -41 c-19 -22 -48 -54 -63 -70 l-29 -29 136 0 c74 0
137 4 140 9 3 4 26 11 52 15 76 10 158 79 189 159 20 54 18 62 -9 36z"/>
</g>
</svg>
